<svg width="14" height="88" viewBox="0 0 14 88" fill="none" xmlns="http://www.w3.org/2000/svg">
<path d="M13.135 84.51C13.135 85.37 12.955 86.04 12.595 86.52C12.235 86.99 11.75 87.32 11.14 87.51C10.53 87.69 9.85 87.78 9.1 87.78L4.81 87.78C3.99 87.78 3.275 87.69 2.665 87.51C2.055 87.32 1.585 86.99 1.255 86.52C0.914999 86.04 0.744999 85.37 0.744999 84.51C0.744999 83.75 0.884999 83.15 1.165 82.71C1.445 82.26 1.845 81.94 2.365 81.75C2.885 81.55 3.51 81.45 4.24 81.45L5.2 81.45L5.2 83.055L4.345 83.055C3.895 83.055 3.5 83.08 3.16 83.13C2.81 83.17 2.54 83.29 2.35 83.49C2.16 83.69 2.065 84.025 2.065 84.495C2.065 84.975 2.17 85.325 2.38 85.545C2.58 85.765 2.87 85.91 3.25 85.98C3.62 86.04 4.055 86.07 4.555 86.07L9.37 86.07C9.98 86.07 10.465 86.02 10.825 85.92C11.175 85.82 11.425 85.655 11.575 85.425C11.725 85.195 11.8 84.885 11.8 84.495C11.8 84.035 11.7 83.705 11.5 83.505C11.29 83.305 11.005 83.18 10.645 83.13C10.285 83.08 9.865 83.055 9.385 83.055L8.485 83.055L8.485 81.45L9.385 81.45C10.125 81.45 10.78 81.54 11.35 81.72C11.91 81.9 12.35 82.21 12.67 82.65C12.98 83.09 13.135 83.71 13.135 84.51ZM13 79.9253L4.33 79.9253L4.33 78.3203L5.56 78.3203C5.03 78.0003 4.675 77.6803 4.495 77.3603C4.315 77.0403 4.225 76.7203 4.225 76.4003C4.225 76.3603 4.225 76.3253 4.225 76.2953C4.225 76.2553 4.23 76.2053 4.24 76.1453L6.01 76.1453C5.96 76.2653 5.92 76.4053 5.89 76.5653C5.85 76.7153 5.83 76.8703 5.83 77.0303C5.83 77.2803 5.89 77.5103 6.01 77.7203C6.12 77.9203 6.34 78.1203 6.67 78.3203L13 78.3203L13 79.9253ZM13 75.0459L4.33 75.0459L4.33 73.4409L13 73.4409L13 75.0459ZM3.04 75.0459L1.36 75.0459L1.36 73.4409L3.04 73.4409L3.04 75.0459ZM13.12 70.1632C13.12 70.5032 13.025 70.8032 12.835 71.0632C12.635 71.3232 12.385 71.5282 12.085 71.6782C11.775 71.8282 11.45 71.9032 11.11 71.9032C10.57 71.9032 10.115 71.8132 9.745 71.6332C9.375 71.4532 9.065 71.2082 8.815 70.8982C8.555 70.5782 8.33 70.2132 8.14 69.8032C7.95 69.3832 7.765 68.9432 7.585 68.4832L6.97 68.4832C6.62 68.4832 6.33 68.5032 6.1 68.5432C5.87 68.5832 5.7 68.6682 5.59 68.7982C5.47 68.9182 5.41 69.1032 5.41 69.3532C5.41 69.5732 5.46 69.7532 5.56 69.8932C5.66 70.0232 5.805 70.1182 5.995 70.1782C6.175 70.2382 6.39 70.2682 6.64 70.2682L7.075 70.2682L7.015 71.8582C6.055 71.8382 5.35 71.6182 4.9 71.1982C4.44 70.7782 4.21 70.1282 4.21 69.2482C4.21 68.3882 4.445 67.7782 4.915 67.4182C5.385 67.0582 6.065 66.8782 6.955 66.8782L10.915 66.8782C11.185 66.8782 11.445 66.8732 11.695 66.8632C11.945 66.8432 12.18 66.8232 12.4 66.8032C12.61 66.7732 12.81 66.7482 13 66.7282L13 68.1982C12.84 68.2282 12.64 68.2682 12.4 68.3182C12.15 68.3582 11.925 68.3882 11.725 68.4082C12.065 68.5082 12.385 68.7032 12.685 68.9932C12.975 69.2732 13.12 69.6632 13.12 70.1632ZM11.74 69.5332C11.74 69.3732 11.695 69.2232 11.605 69.0832C11.515 68.9432 11.415 68.8182 11.305 68.7082C11.185 68.5982 11.09 68.5232 11.02 68.4832L8.56 68.4832C8.7 68.7332 8.84 68.9682 8.98 69.1882C9.12 69.4082 9.27 69.6032 9.43 69.7732C9.58 69.9332 9.755 70.0632 9.955 70.1632C10.145 70.2532 10.365 70.2982 10.615 70.2982C10.965 70.2982 11.24 70.2332 11.44 70.1032C11.64 69.9732 11.74 69.7832 11.74 69.5332ZM13.12 63.3265C13.12 64.0565 12.855 64.6015 12.325 64.9615C11.785 65.3215 10.875 65.5015 9.595 65.5015L7.915 65.5015C7.255 65.5015 6.645 65.4465 6.085 65.3365C5.515 65.2265 5.06 65.0215 4.72 64.7215C4.38 64.4115 4.21 63.9615 4.21 63.3715C4.21 63.0815 4.275 62.8165 4.405 62.5765C4.535 62.3365 4.695 62.1215 4.885 61.9315L0.849998 61.9315L0.849998 60.3265L13 60.3265L13 61.9315L12.445 61.9315C12.645 62.1215 12.81 62.3315 12.94 62.5615C13.06 62.7815 13.12 63.0365 13.12 63.3265ZM11.86 62.9215C11.86 62.7715 11.835 62.6115 11.785 62.4415C11.725 62.2715 11.64 62.1015 11.53 61.9315L5.845 61.9315C5.745 62.0715 5.66 62.2265 5.59 62.3965C5.51 62.5665 5.47 62.7515 5.47 62.9515C5.47 63.3215 5.65 63.5715 6.01 63.7015C6.36 63.8315 6.785 63.8965 7.285 63.8965L9.73 63.8965C10.13 63.8965 10.495 63.8765 10.825 63.8365C11.145 63.7865 11.4 63.6915 11.59 63.5515C11.77 63.4115 11.86 63.2015 11.86 62.9215ZM13.12 56.3157C13.12 56.9557 12.99 57.4607 12.73 57.8307C12.47 58.2007 12.1 58.4657 11.62 58.6257C11.14 58.7757 10.575 58.8507 9.925 58.8507L7.405 58.8507C6.755 58.8507 6.19 58.7757 5.71 58.6257C5.23 58.4657 4.86 58.2007 4.6 57.8307C4.34 57.4607 4.21 56.9557 4.21 56.3157C4.21 55.6757 4.34 55.1757 4.6 54.8157C4.86 54.4457 5.23 54.1857 5.71 54.0357C6.19 53.8757 6.755 53.7957 7.405 53.7957L9.925 53.7957C10.575 53.7957 11.14 53.8757 11.62 54.0357C12.1 54.1857 12.47 54.4457 12.73 54.8157C12.99 55.1757 13.12 55.6757 13.12 56.3157ZM11.935 56.3157C11.935 56.0057 11.845 55.7907 11.665 55.6707C11.485 55.5407 11.25 55.4657 10.96 55.4457C10.66 55.4157 10.35 55.4007 10.03 55.4007L7.315 55.4007C6.985 55.4007 6.675 55.4157 6.385 55.4457C6.095 55.4657 5.86 55.5407 5.68 55.6707C5.49 55.7907 5.395 56.0057 5.395 56.3157C5.395 56.6257 5.49 56.8457 5.68 56.9757C5.86 57.1057 6.095 57.1857 6.385 57.2157C6.675 57.2357 6.985 57.2457 7.315 57.2457L10.03 57.2457C10.35 57.2457 10.66 57.2357 10.96 57.2157C11.25 57.1857 11.485 57.1057 11.665 56.9757C11.845 56.8457 11.935 56.6257 11.935 56.3157ZM13.12 46.5009C13.12 47.1809 12.99 47.7059 12.73 48.0759C12.46 48.4459 12.07 48.7059 11.56 48.8559C11.04 48.9959 10.405 49.0659 9.655 49.0659L7.675 49.0659C6.905 49.0659 6.265 48.9909 5.755 48.8409C5.245 48.6909 4.86 48.4309 4.6 48.0609C4.34 47.6809 4.21 47.1609 4.21 46.5009C4.21 45.7709 4.36 45.2359 4.66 44.8959C4.96 44.5459 5.395 44.3159 5.965 44.2059C6.525 44.0959 7.2 44.0409 7.99 44.0409L8.695 44.0409L8.695 47.4609L10.435 47.4609C10.785 47.4609 11.07 47.4309 11.29 47.3709C11.51 47.3009 11.675 47.1959 11.785 47.0559C11.885 46.9059 11.935 46.7159 11.935 46.4859C11.935 46.2459 11.88 46.0659 11.77 45.9459C11.65 45.8159 11.485 45.7309 11.275 45.6909C11.055 45.6409 10.8 45.6159 10.51 45.6159L9.985 45.6159L9.985 44.0559L10.315 44.0559C11.185 44.0559 11.87 44.2409 12.37 44.6109C12.87 44.9809 13.12 45.6109 13.12 46.5009ZM7.825 47.4609L7.825 45.6159L7.045 45.6159C6.685 45.6159 6.385 45.6359 6.145 45.6759C5.895 45.7159 5.71 45.8009 5.59 45.9309C5.46 46.0509 5.395 46.2459 5.395 46.5159C5.395 46.7759 5.455 46.9759 5.575 47.1159C5.695 47.2459 5.9 47.3359 6.19 47.3859C6.47 47.4359 6.86 47.4609 7.36 47.4609L7.825 47.4609ZM13 42.5875L4.33 42.5875L4.33 41.1025L5.155 41.1025C4.825 40.8125 4.58 40.4925 4.42 40.1425C4.26 39.7925 4.18 39.4325 4.18 39.0625C4.18 38.7425 4.26 38.4575 4.42 38.2075C4.58 37.9475 4.865 37.7625 5.275 37.6525C4.895 37.3425 4.62 37.0075 4.45 36.6475C4.27 36.2775 4.18 35.8925 4.18 35.4925C4.18 35.2125 4.25 34.9575 4.39 34.7275C4.52 34.4975 4.735 34.3125 5.035 34.1725C5.325 34.0325 5.71 33.9625 6.19 33.9625L13 33.9625L13 35.4325L6.295 35.4325C5.875 35.4325 5.595 35.5025 5.455 35.6425C5.305 35.7725 5.23 35.9525 5.23 36.1825C5.23 36.4025 5.295 36.6325 5.425 36.8725C5.545 37.1125 5.715 37.3325 5.935 37.5325C5.975 37.5325 6.015 37.5325 6.055 37.5325C6.095 37.5325 6.14 37.5325 6.19 37.5325L13 37.5325L13 39.0025L6.295 39.0025C5.875 39.0025 5.595 39.0725 5.455 39.2125C5.305 39.3425 5.23 39.5225 5.23 39.7525C5.23 39.9725 5.295 40.2025 5.425 40.4425C5.545 40.6725 5.715 40.8925 5.935 41.1025L13 41.1025L13 42.5875ZM13 29.1594L11.86 29.1594L7.045 26.0694C6.685 25.8394 6.35 25.6294 6.04 25.4394C5.73 25.2394 5.405 25.0794 5.065 24.9594C4.715 24.8294 4.315 24.7644 3.865 24.7644C3.305 24.7644 2.865 24.8544 2.545 25.0344C2.225 25.2144 2.065 25.5294 2.065 25.9794C2.065 26.3594 2.17 26.6544 2.38 26.8644C2.59 27.0744 2.865 27.2194 3.205 27.2994C3.545 27.3794 3.91 27.4194 4.3 27.4194L4.705 27.4194L4.705 29.0244L4.285 29.0244C3.555 29.0244 2.93 28.9294 2.41 28.7394C1.88 28.5394 1.47 28.2244 1.18 27.7944C0.889996 27.3544 0.744996 26.7744 0.744996 26.0544C0.744996 25.0744 1.025 24.3444 1.585 23.8644C2.135 23.3844 2.9 23.1444 3.88 23.1444C4.4 23.1444 4.855 23.2094 5.245 23.3394C5.635 23.4594 6 23.6194 6.34 23.8194C6.68 24.0194 7.03 24.2394 7.39 24.4794L11.65 27.2694L11.65 23.4294L13 23.4294L13 29.1594ZM13.135 18.7263C13.135 19.4163 12.98 19.9863 12.67 20.4363C12.36 20.8763 11.935 21.2063 11.395 21.4263C10.855 21.6363 10.24 21.7413 9.55 21.7413L4.315 21.7413C3.605 21.7413 2.985 21.6363 2.455 21.4263C1.915 21.2163 1.495 20.8913 1.195 20.4513C0.894996 20.0013 0.744996 19.4263 0.744996 18.7263C0.744996 18.0263 0.894996 17.4563 1.195 17.0163C1.495 16.5763 1.915 16.2513 2.455 16.0413C2.985 15.8313 3.605 15.7263 4.315 15.7263L9.55 15.7263C10.25 15.7263 10.87 15.8363 11.41 16.0563C11.95 16.2663 12.375 16.5913 12.685 17.0313C12.985 17.4713 13.135 18.0363 13.135 18.7263ZM11.815 18.7263C11.815 18.3463 11.705 18.0613 11.485 17.8713C11.265 17.6713 10.985 17.5363 10.645 17.4663C10.295 17.3863 9.935 17.3463 9.565 17.3463L4.3 17.3463C3.91 17.3463 3.545 17.3813 3.205 17.4513C2.855 17.5213 2.575 17.6563 2.365 17.8563C2.155 18.0463 2.05 18.3363 2.05 18.7263C2.05 19.1163 2.155 19.4113 2.365 19.6113C2.575 19.8113 2.855 19.9463 3.205 20.0163C3.545 20.0863 3.91 20.1213 4.3 20.1213L9.565 20.1213C9.935 20.1213 10.295 20.0863 10.645 20.0163C10.985 19.9363 11.265 19.7963 11.485 19.5963C11.705 19.3863 11.815 19.0963 11.815 18.7263ZM13 14.2473L11.86 14.2473L7.045 11.1573C6.685 10.9273 6.35 10.7173 6.04 10.5273C5.73 10.3273 5.405 10.1673 5.065 10.0473C4.715 9.9173 4.315 9.8523 3.865 9.8523C3.305 9.8523 2.865 9.9423 2.545 10.1223C2.225 10.3023 2.065 10.6173 2.065 11.0673C2.065 11.4473 2.17 11.7423 2.38 11.9523C2.59 12.1623 2.865 12.3073 3.205 12.3873C3.545 12.4673 3.91 12.5073 4.3 12.5073L4.705 12.5073L4.705 14.1123L4.285 14.1123C3.555 14.1123 2.93 14.0173 2.41 13.8273C1.88 13.6273 1.47 13.3123 1.18 12.8823C0.889996 12.4423 0.744996 11.8623 0.744996 11.1423C0.744996 10.1623 1.025 9.4323 1.585 8.9523C2.135 8.4723 2.9 8.2323 3.88 8.2323C4.4 8.2323 4.855 8.2973 5.245 8.4273C5.635 8.5473 6 8.7073 6.34 8.9073C6.68 9.1073 7.03 9.3273 7.39 9.5673L11.65 12.3573L11.65 8.5173L13 8.5173L13 14.2473ZM13.135 3.81422C13.135 4.50422 12.98 5.07422 12.67 5.52422C12.36 5.96422 11.935 6.29422 11.395 6.51422C10.855 6.72422 10.24 6.82922 9.55 6.82922L4.315 6.82922C3.605 6.82922 2.985 6.72422 2.455 6.51422C1.915 6.30422 1.495 5.97922 1.19499 5.53922C0.894995 5.08922 0.744995 4.51422 0.744995 3.81422C0.744995 3.11422 0.894995 2.54422 1.19499 2.10422C1.495 1.66422 1.915 1.33922 2.455 1.12922C2.985 0.919218 3.60499 0.814218 4.31499 0.814218L9.55 0.814218C10.25 0.814218 10.87 0.924218 11.41 1.14422C11.95 1.35422 12.375 1.67922 12.685 2.11922C12.985 2.55922 13.135 3.12422 13.135 3.81422ZM11.815 3.81422C11.815 3.43422 11.705 3.14922 11.485 2.95922C11.265 2.75922 10.985 2.62422 10.645 2.55422C10.295 2.47422 9.935 2.43422 9.565 2.43422L4.3 2.43422C3.91 2.43422 3.545 2.46922 3.20499 2.53922C2.855 2.60922 2.575 2.74422 2.36499 2.94422C2.155 3.13422 2.05 3.42422 2.05 3.81422C2.05 4.20422 2.155 4.49922 2.365 4.69922C2.575 4.89922 2.855 5.03422 3.20499 5.10422C3.545 5.17422 3.91 5.20922 4.3 5.20922L9.565 5.20922C9.935 5.20922 10.295 5.17422 10.645 5.10422C10.985 5.02422 11.265 4.88422 11.485 4.68422C11.705 4.47422 11.815 4.18422 11.815 3.81422Z" fill="#B2B2B2"/>
</svg>
