<svg width="220" height="26" viewBox="0 0 220 26" fill="none" xmlns="http://www.w3.org/2000/svg">
<g id="Vector">
<path d="M6.11994 25L0.689941 0.699989H3.86994L7.70994 18.61L11.3699 0.699989H14.4599L9.08994 25H6.11994Z" fill="black"/>
<path d="M17.2164 25V0.699989H20.5464V25H17.2164Z" fill="black"/>
<path d="M24.4778 25V0.699989H26.7878L33.6878 16.84V0.699989H36.5078V25H34.3478L27.3578 8.40999V25H24.4778Z" fill="black"/>
<path d="M40.5074 25V0.699989H43.8374V25H40.5074Z" fill="black"/>
<path d="M53.8588 25.27C52.1388 25.27 50.7988 24.91 49.8388 24.19C48.8988 23.47 48.2388 22.5 47.8588 21.28C47.4988 20.06 47.3188 18.7 47.3188 17.2V8.61999C47.3188 6.97999 47.4988 5.54999 47.8588 4.32999C48.2388 3.10999 48.8988 2.16999 49.8388 1.50999C50.7988 0.82999 52.1388 0.48999 53.8588 0.48999C55.3788 0.48999 56.5788 0.76999 57.4588 1.32999C58.3588 1.88999 58.9988 2.68999 59.3788 3.72999C59.7789 4.76999 59.9788 6.01999 59.9788 7.47999V9.39999H56.7688V7.68999C56.7688 6.78999 56.7188 5.99999 56.6188 5.31999C56.5388 4.61999 56.2989 4.07999 55.8988 3.69999C55.4988 3.31999 54.8288 3.12999 53.8888 3.12999C52.9288 3.12999 52.2288 3.33999 51.7888 3.75999C51.3489 4.15999 51.0588 4.73999 50.9188 5.49999C50.7988 6.23999 50.7388 7.10999 50.7388 8.10999V17.74C50.7388 18.96 50.8388 19.93 51.0388 20.65C51.2388 21.35 51.5688 21.85 52.0288 22.15C52.4888 22.45 53.1088 22.6 53.8888 22.6C54.8088 22.6 55.4688 22.4 55.8688 22C56.2688 21.58 56.5188 21.01 56.6188 20.29C56.7188 19.57 56.7688 18.73 56.7688 17.77V15.97H59.9788V17.77C59.9788 19.25 59.7988 20.56 59.4388 21.7C59.0788 22.82 58.4589 23.7 57.5788 24.34C56.6988 24.96 55.4588 25.27 53.8588 25.27Z" fill="black"/>
<path d="M63.3883 25V0.699989H66.7183V25H63.3883Z" fill="black"/>
<path d="M76.9197 25.27C75.1597 25.27 73.8097 24.92 72.8697 24.22C71.9297 23.52 71.2897 22.54 70.9497 21.28C70.6097 20 70.4397 18.51 70.4397 16.81V0.699989H73.6797V16.96C73.6797 18 73.7497 18.95 73.8897 19.81C74.0297 20.67 74.3297 21.35 74.7897 21.85C75.2697 22.35 75.9797 22.6 76.9197 22.6C77.8797 22.6 78.5897 22.35 79.0497 21.85C79.5097 21.35 79.8097 20.67 79.9497 19.81C80.0897 18.95 80.1597 18 80.1597 16.96V0.699989H83.3697V16.81C83.3697 18.51 83.1997 20 82.8597 21.28C82.5197 22.54 81.8797 23.52 80.9397 24.22C80.0197 24.92 78.6797 25.27 76.9197 25.27Z" fill="black"/>
<path d="M92.6688 25.27C91.2688 25.27 90.0988 24.97 89.1588 24.37C88.2388 23.77 87.5388 22.94 87.0588 21.88C86.5788 20.82 86.2988 19.59 86.2188 18.19L89.2188 17.38C89.2788 18.24 89.4088 19.07 89.6088 19.87C89.8288 20.67 90.1788 21.33 90.6588 21.85C91.1388 22.35 91.8088 22.6 92.6688 22.6C93.5488 22.6 94.2088 22.36 94.6488 21.88C95.1088 21.38 95.3388 20.67 95.3388 19.75C95.3388 18.65 95.0888 17.77 94.5888 17.11C94.0888 16.43 93.4588 15.75 92.6988 15.07L88.6188 11.47C87.8188 10.77 87.2288 10.01 86.8488 9.18999C86.4688 8.34999 86.2788 7.31999 86.2788 6.09999C86.2788 4.31999 86.7888 2.93999 87.8088 1.95999C88.8288 0.97999 90.2188 0.48999 91.9788 0.48999C92.9388 0.48999 93.7788 0.61999 94.4988 0.879991C95.2388 1.11999 95.8488 1.49999 96.3288 2.01999C96.8288 2.53999 97.2188 3.19999 97.4988 3.99999C97.7988 4.77999 97.9988 5.69999 98.0988 6.75999L95.2188 7.53999C95.1588 6.73999 95.0388 6.00999 94.8588 5.34999C94.6788 4.66999 94.3588 4.12999 93.8988 3.72999C93.4588 3.30999 92.8188 3.09999 91.9788 3.09999C91.1388 3.09999 90.4788 3.32999 89.9988 3.78999C89.5388 4.22999 89.3088 4.88999 89.3088 5.76999C89.3088 6.50999 89.4288 7.11999 89.6688 7.59999C89.9288 8.07999 90.3388 8.56999 90.8988 9.06999L95.0088 12.67C95.9288 13.47 96.7388 14.43 97.4388 15.55C98.1388 16.65 98.4888 17.96 98.4888 19.48C98.4888 20.68 98.2388 21.72 97.7388 22.6C97.2388 23.46 96.5488 24.12 95.6688 24.58C94.8088 25.04 93.8088 25.27 92.6688 25.27Z" fill="black"/>
<path d="M113.764 25.3C112.244 25.3 111.024 24.98 110.104 24.34C109.204 23.68 108.544 22.73 108.124 21.49C107.724 20.25 107.524 18.76 107.524 17.02V8.88999C107.524 7.10999 107.704 5.59999 108.064 4.35999C108.444 3.09999 109.104 2.13999 110.044 1.47999C111.004 0.81999 112.334 0.48999 114.034 0.48999C115.554 0.48999 116.774 0.74999 117.694 1.26999C118.634 1.76999 119.314 2.54999 119.734 3.60999C120.154 4.64999 120.364 5.96999 120.364 7.56999V8.46999H117.184V7.71999C117.184 6.65999 117.114 5.79999 116.974 5.13999C116.834 4.45999 116.544 3.95999 116.104 3.63999C115.684 3.29999 115.014 3.12999 114.094 3.12999C113.094 3.12999 112.364 3.35999 111.904 3.81999C111.464 4.27999 111.184 4.90999 111.064 5.70999C110.964 6.48999 110.914 7.37999 110.914 8.37999V17.38C110.914 18.54 110.994 19.51 111.154 20.29C111.334 21.07 111.664 21.65 112.144 22.03C112.624 22.41 113.304 22.6 114.184 22.6C115.064 22.6 115.744 22.39 116.224 21.97C116.704 21.55 117.034 20.93 117.214 20.11C117.394 19.29 117.484 18.27 117.484 17.05V15.37H114.394V12.97H120.544V25H118.414L118.084 22.21C117.764 23.11 117.264 23.85 116.584 24.43C115.904 25.01 114.964 25.3 113.764 25.3Z" fill="black"/>
<path d="M122.709 25L127.869 0.699989H131.139L136.329 25H133.119L132.009 18.88H127.059L125.889 25H122.709ZM127.509 16.45H131.559L129.519 5.49999L127.509 16.45Z" fill="black"/>
<path d="M138.794 25V0.699989H144.374C145.474 0.699989 146.424 0.81999 147.224 1.05999C148.044 1.29999 148.724 1.66999 149.264 2.16999C149.804 2.66999 150.204 3.30999 150.464 4.08999C150.724 4.84999 150.854 5.74999 150.854 6.78999C150.854 7.78999 150.724 8.65999 150.464 9.39999C150.224 10.12 149.844 10.69 149.324 11.11C148.824 11.53 148.174 11.8 147.374 11.92C148.354 12.14 149.144 12.52 149.744 13.06C150.344 13.58 150.784 14.26 151.064 15.1C151.364 15.92 151.514 16.91 151.514 18.07C151.514 19.11 151.394 20.06 151.154 20.92C150.914 21.78 150.534 22.51 150.014 23.11C149.514 23.71 148.864 24.18 148.064 24.52C147.284 24.84 146.354 25 145.274 25H138.794ZM142.184 22.57H144.464C145.984 22.57 146.994 22.22 147.494 21.52C148.014 20.8 148.274 19.65 148.274 18.07C148.274 17.05 148.134 16.2 147.854 15.52C147.594 14.82 147.164 14.3 146.564 13.96C145.984 13.6 145.194 13.42 144.194 13.42H142.184V22.57ZM142.184 10.84H144.194C145.154 10.84 145.904 10.71 146.444 10.45C146.984 10.17 147.364 9.72999 147.584 9.12999C147.804 8.52999 147.914 7.74999 147.914 6.78999C147.914 5.66999 147.744 4.85999 147.404 4.35999C147.064 3.85999 146.534 3.54999 145.814 3.42999C145.094 3.28999 144.154 3.21999 142.994 3.21999H142.184V10.84Z" fill="black"/>
<path d="M154.527 25V0.699989H159.417C161.037 0.699989 162.377 0.919989 163.437 1.35999C164.497 1.77999 165.277 2.46999 165.777 3.42999C166.297 4.36999 166.557 5.60999 166.557 7.14999C166.557 8.08999 166.457 8.94999 166.257 9.72999C166.057 10.49 165.737 11.14 165.297 11.68C164.857 12.2 164.277 12.58 163.557 12.82L167.007 25H163.737L160.557 13.6H157.917V25H154.527ZM157.917 11.17H159.207C160.167 11.17 160.947 11.05 161.547 10.81C162.147 10.57 162.587 10.16 162.867 9.57999C163.147 8.99999 163.287 8.18999 163.287 7.14999C163.287 5.72999 163.027 4.70999 162.507 4.08999C161.987 3.44999 160.957 3.12999 159.417 3.12999H157.917V11.17Z" fill="black"/>
<path d="M170.263 25V0.699989H173.593V25H170.263Z" fill="black"/>
<path d="M177.525 25V0.699989H186.945V3.21999H180.915V11.26H185.805V13.66H180.915V22.57H187.005V25H177.525Z" fill="black"/>
<path d="M189.742 25V0.699989H193.132V22.57H199.342V25H189.742Z" fill="black"/>
<path d="M220 18C220 21.866 216.866 25 213 25C209.134 25 206 21.866 206 18C206 14.134 209.134 11 213 11C216.866 11 220 14.134 220 18Z" fill="#159895"/>
</g>
</svg>
